<svg xmlns="http://www.w3.org/2000/svg" viewBox="0 0 1562 960" width="1562" height="960"><svg x="80.0" y="80.0" width="1401.9" height="800.0" viewBox="2738 560 2711 1547"><g transform="translate(0.000000,2816.000000) scale(0.100000,-0.100000)" fill="#7D9B6E"><path d="M4875 22828 c-52 -18 -72 -46 -104 -146 -74 -231 -204 -736 -251
-972 -16 -83 -36 -178 -44 -213 -8 -34 -24 -116 -35 -182 -21 -114 -28 -157
-51 -292 -5 -32 -12 -74 -15 -93 -28 -153 -78 -603 -96 -855 -63 -905 -34
-1866 81 -2662 5 -40 14 -103 19 -140 6 -38 15 -96 20 -130 6 -35 16 -90 21
-123 6 -33 15 -87 20 -120 6 -33 14 -86 19 -117 63 -396 257 -1184 388 -1573
25 -74 55 -169 68 -210 112 -365 325 -903 571 -1439 61 -133 258 -524 328
-651 35 -63 85 -155 113 -205 44 -81 100 -175 233 -390 165 -267 469 -702 688
-983 183 -235 456 -568 502 -612 3 -3 34 -39 70 -80 36 -41 72 -82 80 -90 8
-8 44 -49 80 -90 84 -96 803 -815 900 -900 41 -36 77 -67 80 -70 3 -3 39 -34
80 -70 41 -36 77 -67 80 -70 11 -12 204 -174 365 -306 309 -253 544 -428 990
-736 215 -148 613 -397 848 -530 37 -21 100 -57 140 -80 160 -91 316 -174 612
-324 329 -167 381 -191 735 -343 426 -184 510 -217 925 -369 137 -51 440 -152
560 -187 50 -15 135 -40 190 -57 388 -116 969 -261 1315 -327 295 -57 325 -63
383 -72 31 -5 85 -14 120 -20 34 -5 91 -14 127 -19 36 -5 94 -14 130 -20 78
-13 178 -28 280 -40 41 -5 109 -14 150 -20 41 -6 118 -15 170 -20 52 -5 138
-14 190 -20 193 -21 298 -31 425 -40 72 -4 197 -13 280 -19 83 -5 154 -6 158
-2 14 14 -1 47 -47 103 -23 29 -85 114 -138 188 -53 75 -145 199 -205 276 -59
77 -139 182 -177 234 -275 376 -550 749 -626 850 -67 90 -380 513 -514 695
-253 346 -779 1055 -966 1305 -27 36 -89 119 -138 185 -129 174 -172 213 -442
407 -148 106 -237 163 -380 247 -69 41 -150 88 -180 106 -74 44 -500 257 -625
312 -546 244 -1234 466 -1892 612 -51 12 -132 30 -180 41 -49 11 -135 28 -193
39 -58 11 -143 27 -190 36 -47 9 -110 21 -140 25 -77 13 -174 29 -245 41 -33
5 -89 14 -125 19 -36 5 -94 14 -130 20 -36 6 -99 15 -140 20 -41 5 -108 14
-147 20 -40 5 -104 15 -143 20 -38 6 -103 15 -142 20 -40 6 -107 15 -148 20
-230 27 -341 59 -298 86 56 36 627 53 1123 35 370 -14 593 -33 923 -81 39 -5
102 -14 140 -19 95 -14 174 -27 272 -46 47 -8 110 -20 140 -26 154 -28 671
-154 825 -200 485 -146 957 -322 1254 -468 112 -55 141 -62 141 -33 0 14 -299
424 -608 832 -453 600 -607 802 -762 1000 -74 95 -194 251 -490 640 -86 113
-215 282 -286 375 -72 94 -174 227 -226 296 -80 105 -122 147 -245 252 -283
240 -567 444 -843 606 -69 41 -150 88 -180 106 -72 43 -403 208 -505 253 -208
90 -369 157 -470 194 -159 59 -534 186 -645 218 -52 16 -142 43 -200 60 -114
33 -529 139 -650 165 -90 19 -520 109 -605 126 -449 89 -483 100 -414 137 48
25 766 -8 1037 -47 39 -6 102 -15 140 -20 152 -22 168 -25 652 -126 322 -67
704 -174 985 -277 319 -116 619 -241 864 -362 52 -25 101 -46 108 -46 40 0 -3
70 -196 320 -54 69 -209 269 -345 445 -136 176 -305 394 -376 485 -253 325
-526 678 -652 843 -124 162 -240 313 -518 677 -341 446 -488 640 -848 1121
-213 283 -421 564 -462 624 -41 60 -99 142 -129 184 -59 83 -108 177 -99 187
4 3 15 3 25 0 22 -7 453 -432 543 -536 36 -41 108 -118 160 -170 52 -52 124
-129 160 -170 36 -41 85 -95 110 -120 25 -25 74 -79 110 -120 36 -41 76 -86
90 -100 14 -14 54 -59 90 -100 36 -41 76 -86 90 -100 14 -14 54 -59 90 -100
36 -41 67 -77 70 -80 3 -3 34 -39 70 -80 36 -41 72 -82 81 -90 42 -41 1056
-1233 1259 -1480 30 -37 134 -161 231 -276 96 -115 258 -310 359 -434 366
-448 480 -580 500 -580 31 0 29 19 -25 300 -10 47 -21 115 -26 153 -10 76 -24
173 -40 280 -96 651 -62 1670 81 2376 73 367 155 631 195 631 17 0 30 -43 20
-67 -8 -21 -17 -123 -56 -663 -15 -208 -15 -1085 -1 -1280 13 -167 27 -310 42
-427 5 -46 14 -118 19 -160 5 -43 14 -105 20 -138 6 -33 15 -87 20 -120 32
-201 114 -558 180 -780 16 -55 41 -140 56 -190 54 -182 132 -399 217 -600 118
-280 166 -355 477 -740 80 -99 218 -270 306 -380 157 -194 229 -287 495 -635
69 -91 171 -223 226 -295 55 -71 147 -191 204 -265 56 -74 120 -155 140 -180
45 -54 181 -231 430 -560 464 -612 471 -620 496 -599 17 14 17 43 -6 217 -5
45 -15 119 -20 165 -105 825 -90 1828 39 2595 6 34 15 88 20 120 98 605 425
1672 493 1604 12 -12 5 -154 -12 -247 -10 -56 -15 -85 -39 -262 -6 -38 -15
-97 -21 -133 -13 -78 -28 -178 -40 -280 -5 -41 -14 -109 -20 -150 -125 -869
-149 -1947 -61 -2735 37 -328 53 -432 115 -735 66 -322 82 -390 120 -530 19
-69 44 -163 56 -210 27 -107 136 -432 162 -483 10 -21 87 -129 171 -240 340
-449 595 -785 643 -847 29 -36 78 -101 110 -146 33 -44 223 -298 424 -564 201
-265 372 -492 380 -504 8 -11 157 -210 330 -440 173 -231 340 -454 371 -495
30 -42 89 -119 130 -172 40 -53 130 -174 199 -270 206 -285 251 -322 284 -239
15 38 139 528 184 730 24 104 87 428 120 610 32 176 33 181 43 245 5 33 14 87
20 120 5 33 14 90 20 128 5 37 14 100 19 140 48 332 80 707 101 1192 28 654
-3 1451 -81 2073 -19 152 -30 242 -40 319 -12 105 -27 205 -39 281 -6 34 -15
88 -20 120 -9 57 -15 87 -72 382 -157 821 -476 1847 -793 2557 -25 57 -66 147
-90 200 -23 54 -105 220 -180 368 -126 250 -178 346 -283 530 -22 39 -58 102
-81 142 -22 40 -49 85 -60 100 -11 15 -46 73 -79 128 -256 429 -642 955 -1047
1430 -66 77 -122 142 -125 145 -4 3 -35 39 -71 80 -36 41 -94 104 -130 140
-36 36 -94 99 -130 140 -83 95 -225 237 -320 320 -41 36 -109 99 -150 140 -41
41 -109 104 -150 140 -41 36 -82 72 -90 80 -21 22 -203 178 -345 296 -403 335
-957 730 -1367 975 -84 50 -166 100 -181 111 -15 11 -60 38 -100 60 -68 39
-96 54 -277 158 -1114 639 -2702 1236 -4100 1540 -58 12 -130 29 -160 36 -75
18 -551 113 -625 125 -70 11 -145 24 -357 60 -35 5 -93 14 -130 20 -38 5 -101
14 -140 19 -40 6 -108 15 -150 20 -43 6 -115 15 -160 20 -417 53 -823 85
-1273 101 -481 17 -658 19 -690 7z M27775 22548 c-32 -19 -42 -36 -104 -193
-156 -392 -232 -695 -273 -1085 -15 -138 -15 -550 0 -670 6 -52 16 -131 21
-175 42 -367 214 -895 386 -1185 18 -30 58 -99 89 -152 165 -282 412 -566 687
-792 514 -421 1058 -681 1692 -808 167 -34 189 -33 195 10 4 28 -98 224 -468
902 -123 225 -185 340 -250 460 -37 69 -91 168 -120 220 -29 52 -80 145 -113
205 -68 125 -152 280 -240 440 -373 684 -807 1536 -807 1586 0 22 21 3 82 -73
81 -104 298 -422 408 -598 29 -47 83 -132 120 -190 78 -122 158 -251 204 -330
18 -30 46 -77 63 -105 52 -86 430 -727 563 -955 37 -63 91 -155 120 -205 59
-99 118 -204 220 -395 37 -69 95 -176 129 -237 33 -62 87 -161 120 -220 193
-355 212 -387 238 -391 29 -4 36 8 92 158 150 403 224 837 224 1310 0 182 -12
399 -28 500 -3 19 -10 67 -16 105 -119 767 -515 1494 -1079 1981 -310 267
-569 423 -1025 615 -182 77 -620 210 -800 243 -49 9 -112 21 -138 26 -65 13
-167 12 -192 -2z"/></g><g transform="translate(0.000000,2816.000000) scale(0.100000,-0.100000)" fill="#B1D2BD"><path d="M43410 21910 c-19 -4 -78 -16 -129 -25 -190 -34 -531 -137 -777 -235
-642 -256 -1168 -697 -1483 -1240 -24 -41 -59 -100 -77 -131 -126 -212 -260
-623 -314 -959 -6 -41 -14 -84 -17 -95 -36 -149 -33 -632 6 -915 37 -266 188
-767 251 -834 28 -29 46 -8 141 164 25 47 69 127 98 178 28 50 73 131 99 180
27 48 68 120 90 160 23 39 59 102 80 140 42 73 127 218 175 297 89 146 254
416 324 530 44 72 106 173 138 225 31 52 80 131 108 175 49 78 101 160 200
320 354 567 627 946 651 906 6 -9 -242 -509 -388 -781 -46 -85 -115 -213 -153
-285 -77 -144 -149 -274 -210 -380 -22 -38 -59 -104 -83 -145 -58 -102 -115
-201 -163 -285 -22 -38 -61 -108 -87 -155 -44 -79 -71 -127 -170 -300 -20 -36
-55 -96 -77 -135 -22 -38 -58 -101 -80 -140 -22 -38 -60 -104 -83 -145 -24
-41 -64 -113 -90 -160 -26 -47 -66 -118 -88 -157 -183 -320 -184 -321 -180
-345 8 -56 331 3 705 128 462 154 778 336 1163 668 196 170 317 309 490 566
248 369 420 819 489 1278 6 39 16 102 22 140 13 80 6 629 -9 742 -41 296 -118
571 -242 863 -85 200 -76 192 -197 194 -54 1 -114 -2 -133 -7z M24015 19789
c-48 -9 -112 -20 -240 -39 -118 -18 -311 -52 -373 -66 -35 -8 -108 -23 -164
-34 -144 -29 -367 -87 -733 -191 -248 -71 -601 -206 -1020 -392 -122 -54 -549
-267 -625 -312 -324 -191 -481 -288 -575 -355 -44 -31 -159 -112 -255 -180
-96 -69 -220 -160 -275 -204 -92 -73 -283 -233 -295 -246 -3 -3 -39 -34 -80
-70 -114 -100 -524 -513 -625 -630 -317 -369 -575 -719 -575 -781 0 -17 57
-143 141 -312 78 -155 162 -327 187 -382 24 -55 62 -140 84 -190 88 -196 210
-504 327 -820 123 -335 342 -1077 405 -1370 8 -38 24 -113 36 -165 35 -155 71
-331 81 -392 10 -66 25 -155 40 -243 5 -33 14 -90 20 -127 5 -38 14 -99 19
-138 6 -38 15 -101 20 -140 6 -38 15 -103 21 -142 12 -84 25 -203 37 -336 9
-96 25 -131 56 -119 9 4 174 320 367 704 193 384 402 797 465 918 126 244 150
309 195 535 29 148 38 202 59 370 51 394 42 962 -19 1315 -13 73 -28 165 -40
243 -21 131 -103 516 -136 637 -39 146 -109 424 -118 470 -10 54 9 65 43 25
118 -138 364 -783 451 -1182 11 -51 27 -124 35 -163 9 -38 20 -96 25 -127 5
-32 14 -86 20 -120 29 -170 48 -389 57 -635 7 -195 10 -210 36 -200 23 9 46
47 226 377 32 58 86 157 120 220 35 63 98 180 140 260 42 80 105 196 139 258
75 139 163 298 240 440 32 59 82 150 111 202 29 52 83 151 120 220 182 339
230 424 344 615 77 129 117 192 246 395 37 58 87 137 111 175 45 72 115 155
130 155 18 0 8 -48 -30 -151 -67 -179 -309 -751 -413 -974 -228 -490 -324
-694 -510 -1080 -72 -148 -222 -457 -333 -685 -360 -737 -353 -711 -151 -576
235 156 320 205 571 330 425 211 792 336 1265 430 448 88 359 10 -245 -216
-283 -106 -555 -228 -715 -323 -30 -18 -111 -65 -180 -106 -415 -244 -801
-540 -1000 -769 -36 -41 -80 -91 -97 -111 -150 -165 -148 -162 -656 -1180
-439 -880 -636 -1284 -651 -1332 -15 -48 61 -14 239 107 93 62 189 115 457
251 563 284 1290 526 1848 615 41 6 94 16 117 21 80 17 153 10 153 -16 0 -27
-72 -61 -310 -145 -74 -27 -169 -60 -210 -75 -156 -56 -549 -210 -669 -262
-69 -31 -160 -70 -201 -88 -97 -42 -469 -228 -540 -270 -30 -18 -111 -65 -180
-106 -148 -87 -393 -248 -505 -333 -132 -99 -318 -251 -355 -290 l-35 -37 -7
-422 c-10 -598 -27 -894 -78 -1357 -19 -171 -29 -264 -39 -340 -5 -41 -14
-118 -20 -171 -6 -53 -11 -101 -12 -105 -11 -60 22 -62 143 -10 117 49 524
251 608 301 30 18 89 51 130 75 189 108 239 138 495 303 77 50 165 106 195
125 236 150 958 714 1090 852 8 8 49 44 90 80 96 84 516 503 600 600 36 41 76
86 90 100 77 76 365 427 521 635 396 527 783 1168 996 1650 105 237 193 448
231 550 105 287 122 335 142 405 12 41 30 100 40 130 26 74 105 367 125 460
41 192 67 320 75 370 5 30 14 84 20 120 6 36 15 95 21 133 5 37 14 100 20 140
5 39 14 116 20 170 5 53 14 143 19 200 44 425 44 988 0 1417 -27 267 -55 490
-79 635 -6 33 -15 91 -21 129 -6 37 -12 71 -14 75 -3 4 -16 65 -31 136 -120
596 -398 1391 -686 1965 -136 272 -153 293 -240 296 -35 1 -86 -2 -114 -7z"/></g><g transform="translate(0.000000,2816.000000) scale(0.100000,-0.100000)" fill="#EFEEEA"><path d="M38300 15830 c-14 -4 -51 -8 -83 -9 -32 -1 -77 -5 -100 -10 -23 -5
-76 -15 -117 -21 -507 -78 -1048 -299 -1525 -621 -245 -165 -545 -431 -735
-649 -148 -171 -178 -195 -194 -154 -3 9 -6 317 -6 685 0 656 0 669 -20 689
-20 20 -33 20 -1345 20 -1326 0 -1326 0 -1351 -25 -24 -24 -24 -24 -19 -4042
4 -4269 7 -4575 39 -4599 30 -21 2642 -21 2672 0 19 14 19 53 25 2353 4 1471
10 2370 17 2423 59 503 328 1001 703 1306 350 285 844 479 1384 545 232 28
318 32 655 32 344 0 421 -4 699 -33 79 -8 116 -9 124 -1 28 28 32 153 32 1061
0 905 0 926 -20 965 -23 45 -52 62 -133 77 -70 13 -667 20 -702 8z M50937
15834 c-4 -4 -58 -11 -119 -15 -518 -36 -955 -159 -1483 -415 -234 -114 -585
-347 -765 -508 -19 -17 -69 -60 -110 -96 -92 -80 -174 -162 -263 -263 -71 -80
-103 -95 -112 -54 -12 58 -20 501 -14 847 3 230 -11 398 -35 416 -17 12 -215
14 -1333 14 -1314 0 -1314 0 -1338 -25 -25 -24 -25 -24 -25 -4320 0 -4282 0
-4295 20 -4315 20 -20 33 -20 1338 -20 1123 0 1321 2 1338 14 19 14 19 54 25
2413 4 1557 10 2431 17 2493 40 359 99 576 232 840 173 345 464 651 771 810
180 93 457 184 649 212 106 16 574 22 655 8 403 -69 624 -170 839 -386 267
-267 408 -612 497 -1219 28 -190 31 -391 37 -2715 4 -1368 11 -2423 16 -2433
5 -10 20 -23 33 -28 14 -5 554 -9 1324 -9 1410 0 1351 -2 1364 53 10 42 -3
5387 -13 5517 -10 120 -20 213 -41 385 -58 479 -233 1024 -439 1365 -509 844
-1311 1321 -2392 1421 -132 13 -663 23 -673 13z M28100 15740 c-20 -20 -20
-33 -20 -4315 0 -4296 0 -4296 25 -4320 24 -25 24 -25 1355 -25 1331 0 1331 0
1355 25 25 24 25 24 25 4320 0 4282 0 4295 -20 4315 -20 20 -33 20 -1360 20
-1327 0 -1340 0 -1360 -20z M40683 15734 c-24 -24 -25 -29 -17 -87 9 -69 9
-250 3 -882 -6 -635 1 -6744 8 -7168 8 -479 8 -479 32 -498 23 -18 59 -19
1373 -19 1349 0 1349 0 1373 25 25 24 25 24 25 4320 0 4282 0 4295 -20 4315
-20 20 -33 20 -1385 20 -1366 0 -1366 0 -1392 -26z"/></g></svg></svg>